<svg width="20" height="19" viewBox="0 0 20 19" fill="none" xmlns="http://www.w3.org/2000/svg">
<path d="M9.99996 13.8182C11.8409 13.8182 13.3333 12.2716 13.3333 10.3637C13.3333 8.45577 11.8409 6.90912 9.99996 6.90912C8.15901 6.90912 6.66663 8.45577 6.66663 10.3637C6.66663 12.2716 8.15901 13.8182 9.99996 13.8182Z" fill="white"/>
<path d="M16.6667 2.59092H14.7667L14.5 1.77047C14.3366 1.25408 14.0196 0.8046 13.5944 0.486528C13.1692 0.168457 12.6577 -0.00186009 12.1333 1.53233e-05H7.86667C7.34229 -0.00186009 6.83081 0.168457 6.40563 0.486528C5.98044 0.8046 5.6634 1.25408 5.5 1.77047L5.23333 2.59092H3.33333C2.44928 2.59092 1.60143 2.95488 0.976311 3.60273C0.35119 4.25059 0 5.12926 0 6.04547L0 15.5455C0 16.4617 0.35119 17.3403 0.976311 17.9882C1.60143 18.636 2.44928 19 3.33333 19H16.6667C17.5507 19 18.3986 18.636 19.0237 17.9882C19.6488 17.3403 20 16.4617 20 15.5455V6.04547C20 5.12926 19.6488 4.25059 19.0237 3.60273C18.3986 2.95488 17.5507 2.59092 16.6667 2.59092ZM10 15.5455C9.01109 15.5455 8.04439 15.2415 7.22215 14.6722C6.3999 14.1028 5.75904 13.2935 5.3806 12.3466C5.00216 11.3998 4.90315 10.3579 5.09607 9.35272C5.289 8.34755 5.7652 7.42424 6.46447 6.69955C7.16373 5.97486 8.05464 5.48134 9.02455 5.2814C9.99445 5.08146 10.9998 5.18407 11.9134 5.57627C12.827 5.96847 13.6079 6.63264 14.1573 7.48478C14.7068 8.33693 15 9.33878 15 10.3636C14.9987 11.7375 14.4715 13.0547 13.5341 14.0262C12.5967 14.9977 11.3257 15.5441 10 15.5455Z" fill="white"/>
</svg>
