<svg width="24" height="18" viewBox="0 0 24 18" fill="none" xmlns="http://www.w3.org/2000/svg">
<g id="Group 84">
<path id="Vector" d="M0.400051 7.72298L11.5146 13.9839C11.6346 14.0514 11.7703 14.0869 11.9085 14.0869C12.0466 14.0869 12.1824 14.0514 12.3023 13.9839L23.4169 7.72298C23.5385 7.65453 23.6395 7.55562 23.7097 7.43629C23.78 7.31695 23.817 7.18142 23.817 7.04345C23.817 6.90547 23.78 6.76995 23.7097 6.65061C23.6395 6.53128 23.5385 6.43237 23.4169 6.36392L12.3023 0.103033C12.1824 0.0355131 12.0466 0 11.9085 0C11.7703 0 11.6346 0.0355131 11.5146 0.103033L0.400051 6.36392C0.278523 6.43237 0.177513 6.53128 0.107258 6.65061C0.0370027 6.76995 0 6.90547 0 7.04345C0 7.18142 0.0370027 7.31695 0.107258 7.43629C0.177513 7.55562 0.278523 7.65453 0.400051 7.72298Z" fill="black"/>
<path id="Vector_2" d="M22.6292 10.277L11.9085 16.316L1.18776 10.277C1.09724 10.226 0.99741 10.1931 0.893984 10.1801C0.790558 10.1672 0.685555 10.1744 0.584973 10.2015C0.48439 10.2285 0.390197 10.2748 0.307771 10.3378C0.225345 10.4007 0.1563 10.479 0.104579 10.5683C0.0528585 10.6575 0.0194741 10.7559 0.00633238 10.8579C-0.00680935 10.9598 0.000548925 11.0633 0.0279871 11.1625C0.0554253 11.2616 0.102406 11.3545 0.166247 11.4357C0.230088 11.517 0.309538 11.5851 0.400063 11.636L11.5147 17.8969C11.6346 17.9645 11.7704 18 11.9085 18C12.0466 18 12.1824 17.9645 12.3024 17.8969L23.4169 11.636C23.5075 11.5851 23.5869 11.517 23.6508 11.4357C23.7146 11.3545 23.7616 11.2616 23.789 11.1625C23.8165 11.0633 23.8238 10.9598 23.8107 10.8579C23.7975 10.7559 23.7641 10.6575 23.7124 10.5683C23.6607 10.479 23.5917 10.4007 23.5092 10.3378C23.4268 10.2748 23.3326 10.2285 23.232 10.2015C23.1314 10.1744 23.0264 10.1672 22.923 10.1801C22.8196 10.1931 22.7198 10.226 22.6292 10.277Z" fill="black"/>
</g>
</svg>
