<svg width="32" height="39" viewBox="0 0 32 39" fill="none" xmlns="http://www.w3.org/2000/svg">
<path d="M26 13.65V9.75C26 4.29 21.6 0 16 0C10.4 0 6 4.29 6 9.75V13.65C2.6 13.65 0 16.185 0 19.5V33.15C0 36.465 2.6 39 6 39H26C29.4 39 32 36.465 32 33.15V19.5C32 16.185 29.4 13.65 26 13.65ZM10 9.75C10 6.435 12.6 3.9 16 3.9C19.4 3.9 22 6.435 22 9.75V13.65H10V9.75ZM18.2 26.325L18 26.52V29.25C18 30.42 17.2 31.2 16 31.2C14.8 31.2 14 30.42 14 29.25V26.52C12.8 25.35 12.6 23.595 13.8 22.425C15 21.255 16.8 21.06 18 22.23C19.2 23.205 19.4 25.155 18.2 26.325Z" fill="black"/>
</svg>
