<svg width="21" height="20" viewBox="0 0 21 20" fill="none" xmlns="http://www.w3.org/2000/svg">
<path d="M10.0061 14.1605C10.8897 14.1605 11.7372 13.8095 12.3621 13.1846C12.987 12.5598 13.338 11.7123 13.338 10.8286C13.3383 10.6332 13.3215 10.4381 13.288 10.2455L9.42297 14.1106C9.61552 14.1441 9.81062 14.1608 10.0061 14.1605Z" fill="white"/>
<path d="M14.6208 8.91275C14.8754 9.51929 15.0057 10.1708 15.0039 10.8286C15.0039 12.1541 14.4774 13.4254 13.5401 14.3627C12.6028 15.2999 11.3316 15.8265 10.006 15.8265C9.34821 15.8283 8.69672 15.698 8.09018 15.4433L4.37507 19.1584H16.6699C17.5536 19.1584 18.4011 18.8074 19.0259 18.1825C19.6508 17.5577 20.0018 16.7102 20.0018 15.8265V6.66369C20.0031 5.82921 19.6876 5.02535 19.1189 4.41464L14.6208 8.91275ZM19.7578 0.243886C19.6016 0.087726 19.3897 0 19.1689 0C18.948 0 18.7361 0.087726 18.5799 0.243886L15.4921 3.33176H14.7707L14.5042 2.54042C14.4595 2.40156 14.4009 2.2676 14.3292 2.14059C14.117 1.74444 13.801 1.41346 13.4151 1.1831C13.0292 0.952732 12.5879 0.831647 12.1385 0.832806H7.8736C7.34944 0.830997 6.83818 0.995269 6.41318 1.30205C5.98817 1.60883 5.67126 2.04236 5.50793 2.54042L5.24137 3.33176H3.34217C2.45849 3.33176 1.611 3.6828 0.986137 4.30766C0.361278 4.93252 0.0102359 5.78001 0.0102359 6.66369V15.8265C0.00996969 16.022 0.0266923 16.2171 0.0602149 16.4096C0.168308 16.9973 0.434386 17.5444 0.829892 17.9923L0.2543 18.5679C0.174742 18.6447 0.111283 18.7366 0.0676273 18.8382C0.0239714 18.9399 0.000992561 19.0492 3.14508e-05 19.1598C-0.000929659 19.2704 0.0201463 19.3801 0.0620294 19.4824C0.103913 19.5848 0.165764 19.6778 0.243975 19.756C0.322186 19.8342 0.415191 19.8961 0.517561 19.938C0.619932 19.9799 0.729619 20.0009 0.840222 20C0.950825 19.999 1.06013 19.976 1.16176 19.9324C1.26338 19.8887 1.3553 19.8253 1.43214 19.7457L19.7578 1.42006C19.9134 1.26392 20.0008 1.05244 20.0008 0.831973C20.0008 0.611503 19.9134 0.400026 19.7578 0.243886ZM5.00814 10.8286C5.00814 9.50308 5.5347 8.23185 6.47199 7.29456C7.40928 6.35727 8.68051 5.83071 10.006 5.83071C10.8377 5.82996 11.6562 6.03881 12.3859 6.43795L11.1239 7.69992C10.766 7.56763 10.3876 7.49885 10.006 7.49668C9.12236 7.49668 8.27486 7.84772 7.65001 8.47258C7.02515 9.09743 6.6741 9.94493 6.6741 10.8286C6.67628 11.2102 6.74506 11.5885 6.87735 11.9465L5.61538 13.2084C5.21624 12.4788 5.00739 11.6603 5.00814 10.8286Z" fill="white"/>
</svg>
