<svg width="32" height="39" viewBox="0 0 32 39" fill="none" xmlns="http://www.w3.org/2000/svg">
<path d="M26 13.65H10V9.75C10 8.19 10.6 6.825 11.8 5.655C14.2 3.315 18 3.315 20.2 5.655C21 6.435 21.4 7.41 21.8 8.385C22 9.36 23.2 9.945 24.2 9.75C25.2 9.555 26 8.385 25.6 7.41C25.2 5.655 24.2 4.095 23 2.925C21.2 0.975 18.6 0 16 0C10.4 0 6 4.29 6 9.75V13.65C2.6 13.65 0 16.185 0 19.5V33.15C0 36.465 2.6 39 6 39H26C29.4 39 32 36.465 32 33.15V19.5C32 16.185 29.4 13.65 26 13.65ZM18.2 26.325L18 26.52V29.25C18 30.42 17.2 31.2 16 31.2C14.8 31.2 14 30.42 14 29.25V26.52C12.8 25.35 12.6 23.595 13.8 22.425C15 21.255 16.8 21.06 18 22.23C19.2 23.205 19.4 25.155 18.2 26.325Z" fill="black"/>
</svg>
